<svg viewBox="0 0 372 32" width="372px" height="32px" xmlns="http://www.w3.org/2000/svg">
  <defs></defs>
  <path d="M 53.554 21.522 C 53.158 21.52 52.775 21.667 52.479 21.934 C 51.009 23.195 49.568 23.898 47.431 23.898 C 43.569 23.898 40.769 20.644 40.769 16.61 L 40.769 16.552 C 40.769 12.544 43.598 9.312 47.431 9.312 C 49.204 9.314 50.916 9.971 52.249 11.16 C 52.512 11.348 52.821 11.462 53.142 11.488 C 53.463 11.513 53.785 11.451 54.074 11.307 C 54.363 11.162 54.608 10.942 54.785 10.668 C 54.961 10.393 55.061 10.076 55.075 9.749 C 55.076 9.472 55.014 9.198 54.894 8.949 C 54.774 8.7 54.599 8.483 54.383 8.314 C 52.626 6.936 50.575 6 47.459 6 C 41.365 6 37.062 10.777 37.062 16.61 L 37.062 16.669 C 37.062 22.564 41.447 27.235 47.33 27.235 C 50.589 27.235 52.755 26.182 54.659 24.481 C 54.839 24.319 54.983 24.12 55.082 23.898 C 55.182 23.676 55.234 23.435 55.236 23.191 C 55.224 22.745 55.042 22.322 54.728 22.01 C 54.414 21.699 53.993 21.524 53.554 21.522 Z M 66.766 14.985 C 62.869 14.045 61.948 13.342 61.948 11.761 L 61.948 11.702 C 61.948 10.351 63.159 9.268 65.235 9.268 C 66.824 9.268 68.322 9.793 69.896 10.821 C 70.174 10.996 70.494 11.088 70.821 11.087 C 71.039 11.089 71.255 11.048 71.458 10.965 C 71.66 10.882 71.844 10.759 71.999 10.604 C 72.154 10.448 72.278 10.263 72.362 10.059 C 72.447 9.855 72.491 9.636 72.492 9.414 C 72.499 9.126 72.431 8.841 72.295 8.589 C 72.158 8.337 71.957 8.126 71.714 7.979 C 69.822 6.692 67.587 6.027 65.311 6.073 C 61.302 6.073 58.42 8.503 58.42 12.023 L 58.42 12.081 C 58.42 15.864 60.84 17.153 65.139 18.21 C 68.889 19.088 69.695 19.879 69.695 21.347 L 69.695 21.406 C 69.695 22.929 68.312 23.985 66.11 23.985 C 64.039 23.984 62.036 23.237 60.456 21.876 C 60.205 21.692 59.909 21.582 59.601 21.556 C 59.292 21.53 58.983 21.589 58.705 21.727 C 58.427 21.865 58.191 22.077 58.022 22.341 C 57.853 22.604 57.758 22.91 57.746 23.224 C 57.744 23.493 57.806 23.758 57.927 23.998 C 58.047 24.238 58.222 24.444 58.438 24.601 C 60.621 26.278 63.284 27.184 66.021 27.181 C 70.262 27.181 73.234 24.892 73.234 21.052 L 73.234 20.994 C 73.245 17.594 71.033 16.038 66.766 14.985 Z M 84.646 14.985 C 80.752 14.045 79.831 13.342 79.831 11.761 L 79.831 11.702 C 79.831 10.351 81.043 9.268 83.119 9.268 C 84.703 9.268 86.206 9.793 87.78 10.821 C 88.057 10.996 88.378 11.088 88.705 11.087 C 88.923 11.089 89.139 11.048 89.341 10.965 C 89.543 10.882 89.727 10.759 89.882 10.604 C 90.038 10.448 90.161 10.263 90.246 10.059 C 90.33 9.855 90.374 9.636 90.375 9.414 C 90.383 9.126 90.315 8.841 90.178 8.589 C 90.041 8.337 89.841 8.126 89.597 7.979 C 87.7 6.688 85.458 6.023 83.176 6.073 C 79.168 6.073 76.282 8.503 76.282 12.023 L 76.282 12.081 C 76.282 15.864 78.705 17.153 83.004 18.21 C 86.754 19.088 87.561 19.879 87.561 21.347 L 87.561 21.406 C 87.561 22.929 86.177 23.985 83.976 23.985 C 81.906 23.984 79.904 23.236 78.325 21.876 C 78.073 21.693 77.778 21.583 77.469 21.557 C 77.161 21.53 76.851 21.59 76.573 21.728 C 76.295 21.866 76.059 22.078 75.889 22.341 C 75.72 22.605 75.624 22.909 75.611 23.224 C 75.611 23.493 75.673 23.758 75.794 23.997 C 75.914 24.237 76.089 24.444 76.303 24.601 C 78.488 26.278 81.152 27.183 83.89 27.181 C 88.131 27.181 91.1 24.892 91.1 21.052 L 91.1 20.994 C 91.107 17.594 88.916 16.038 84.646 14.985 Z M 101.002 16.159 L 95.578 16.159 C 95.136 16.179 94.72 16.372 94.414 16.697 C 94.109 17.021 93.939 17.453 93.939 17.902 C 93.939 18.351 94.109 18.783 94.414 19.108 C 94.72 19.433 95.136 19.625 95.578 19.646 L 101.002 19.646 C 101.444 19.625 101.86 19.433 102.166 19.108 C 102.471 18.783 102.641 18.351 102.641 17.902 C 102.641 17.453 102.471 17.021 102.166 16.697 C 101.86 16.372 101.444 16.179 101.002 16.159 Z M 117.344 6.364 L 103.942 6.364 C 103.72 6.354 103.498 6.389 103.289 6.468 C 103.081 6.548 102.89 6.669 102.729 6.825 C 102.568 6.981 102.44 7.169 102.352 7.377 C 102.265 7.585 102.22 7.809 102.22 8.035 C 102.22 8.261 102.265 8.485 102.352 8.693 C 102.44 8.901 102.568 9.089 102.729 9.245 C 102.89 9.401 103.081 9.522 103.289 9.602 C 103.498 9.681 103.72 9.716 103.942 9.706 L 108.843 9.706 L 108.843 25.246 C 108.843 25.729 109.032 26.193 109.368 26.534 C 109.704 26.876 110.16 27.068 110.636 27.068 C 111.111 27.068 111.567 26.876 111.903 26.534 C 112.24 26.193 112.428 25.729 112.428 25.246 L 112.428 9.706 L 117.344 9.706 C 117.767 9.686 118.165 9.501 118.458 9.19 C 118.75 8.879 118.913 8.465 118.913 8.035 C 118.913 7.605 118.75 7.191 118.458 6.88 C 118.165 6.569 117.767 6.384 117.344 6.364 Z M 131.273 6.364 L 124.073 6.364 C 123.837 6.36 123.602 6.405 123.383 6.495 C 123.164 6.585 122.965 6.719 122.797 6.889 C 122.63 7.059 122.498 7.262 122.409 7.484 C 122.321 7.707 122.277 7.946 122.281 8.186 L 122.281 25.25 C 122.342 25.684 122.555 26.081 122.881 26.369 C 123.207 26.656 123.624 26.815 124.056 26.815 C 124.487 26.815 124.904 26.656 125.23 26.369 C 125.556 26.081 125.769 25.684 125.83 25.25 L 125.83 19.733 L 130.301 19.733 L 135.202 26.095 C 135.389 26.388 135.646 26.627 135.949 26.791 C 136.252 26.956 136.591 27.04 136.934 27.035 C 137.154 27.039 137.372 26.999 137.577 26.917 C 137.781 26.835 137.968 26.713 138.126 26.557 C 138.284 26.402 138.411 26.217 138.498 26.012 C 138.586 25.807 138.633 25.586 138.637 25.363 C 138.617 24.847 138.412 24.357 138.06 23.985 L 134.195 19.03 C 136.905 18.181 138.78 16.188 138.78 12.901 L 138.78 12.843 C 138.801 12.029 138.664 11.22 138.376 10.46 C 138.089 9.7 137.657 9.006 137.106 8.416 C 135.812 7.126 133.836 6.364 131.284 6.364 L 131.273 6.364 Z M 135.177 13.105 C 135.177 15.186 133.564 16.534 131.025 16.534 L 125.834 16.534 L 125.834 9.647 L 130.997 9.647 C 133.621 9.647 135.177 10.85 135.177 13.051 L 135.177 13.105 Z M 144.839 6.219 C 144.605 6.213 144.372 6.256 144.155 6.343 C 143.937 6.431 143.739 6.562 143.571 6.729 C 143.404 6.895 143.272 7.095 143.182 7.314 C 143.092 7.534 143.046 7.77 143.047 8.008 L 143.047 25.246 C 143.067 25.71 143.263 26.148 143.593 26.469 C 143.923 26.79 144.363 26.969 144.82 26.969 C 145.276 26.969 145.716 26.79 146.046 26.469 C 146.376 26.148 146.572 25.71 146.593 25.246 L 146.593 8.004 C 146.594 7.769 146.55 7.537 146.462 7.32 C 146.375 7.103 146.245 6.906 146.082 6.74 C 145.919 6.574 145.726 6.442 145.512 6.353 C 145.299 6.263 145.07 6.218 144.839 6.219 Z M 167.308 21.522 C 166.912 21.519 166.529 21.666 166.233 21.934 C 164.759 23.195 163.318 23.898 161.185 23.898 C 157.32 23.898 154.52 20.644 154.52 16.61 L 154.52 16.552 C 154.52 12.544 157.348 9.312 161.185 9.312 C 162.957 9.315 164.668 9.971 166 11.16 C 166.308 11.399 166.687 11.527 167.075 11.524 C 167.305 11.529 167.534 11.487 167.748 11.4 C 167.962 11.314 168.156 11.185 168.321 11.021 C 168.485 10.857 168.615 10.661 168.703 10.445 C 168.792 10.23 168.837 9.998 168.836 9.764 C 168.835 9.487 168.773 9.214 168.653 8.965 C 168.533 8.716 168.359 8.498 168.144 8.328 C 166.383 6.951 164.336 6.015 161.221 6.015 C 155.104 6.015 150.823 10.791 150.823 16.625 L 150.823 16.683 C 150.823 22.579 155.204 27.25 161.091 27.25 C 164.35 27.25 166.512 26.197 168.416 24.495 C 168.596 24.334 168.74 24.135 168.84 23.913 C 168.939 23.691 168.992 23.45 168.993 23.206 C 168.985 22.757 168.804 22.329 168.489 22.014 C 168.174 21.7 167.75 21.523 167.308 21.522 Z M 182.008 15.393 L 188.297 9.239 C 188.493 9.075 188.652 8.869 188.762 8.635 C 188.871 8.401 188.929 8.146 188.931 7.887 C 188.934 7.667 188.893 7.449 188.811 7.245 C 188.729 7.041 188.608 6.856 188.454 6.701 C 188.301 6.545 188.119 6.422 187.918 6.34 C 187.717 6.257 187.502 6.216 187.286 6.219 C 187.006 6.215 186.73 6.275 186.476 6.395 C 186.223 6.515 186 6.691 185.823 6.911 L 176.25 16.683 L 176.25 8.004 C 176.23 7.54 176.034 7.102 175.704 6.781 C 175.373 6.461 174.934 6.281 174.477 6.281 C 174.02 6.281 173.581 6.461 173.251 6.781 C 172.92 7.102 172.725 7.54 172.704 8.004 L 172.704 25.242 C 172.725 25.706 172.92 26.144 173.251 26.465 C 173.581 26.786 174.02 26.965 174.477 26.965 C 174.934 26.965 175.373 26.786 175.704 26.465 C 176.034 26.144 176.23 25.706 176.25 25.242 L 176.25 20.994 L 179.538 17.769 L 186.027 26.186 C 186.187 26.444 186.409 26.657 186.672 26.805 C 186.934 26.954 187.229 27.033 187.529 27.035 C 187.762 27.044 187.994 27.005 188.211 26.92 C 188.429 26.836 188.627 26.708 188.795 26.543 C 188.962 26.379 189.095 26.182 189.186 25.964 C 189.276 25.746 189.323 25.512 189.322 25.275 C 189.319 24.799 189.146 24.341 188.834 23.985 L 182.008 15.393 Z M 200.58 14.985 C 196.686 14.045 195.765 13.342 195.765 11.761 L 195.765 11.702 C 195.765 10.351 196.977 9.268 199.052 9.268 C 200.641 9.268 202.139 9.793 203.713 10.821 C 203.991 10.996 204.312 11.088 204.638 11.087 C 204.856 11.089 205.073 11.048 205.275 10.965 C 205.477 10.882 205.661 10.759 205.816 10.604 C 205.971 10.448 206.095 10.263 206.18 10.059 C 206.264 9.855 206.308 9.636 206.309 9.414 C 206.318 9.127 206.251 8.843 206.116 8.591 C 205.982 8.339 205.783 8.127 205.542 7.979 C 203.65 6.692 201.415 6.027 199.139 6.073 C 195.13 6.073 192.244 8.503 192.244 12.023 L 192.244 12.081 C 192.244 15.864 194.668 17.153 198.966 18.21 C 202.717 19.088 203.523 19.879 203.523 21.347 L 203.523 21.406 C 203.523 22.929 202.139 23.985 199.938 23.985 C 197.868 23.984 195.866 23.236 194.288 21.876 C 194.036 21.693 193.74 21.583 193.431 21.557 C 193.123 21.53 192.813 21.59 192.535 21.728 C 192.257 21.866 192.021 22.078 191.852 22.341 C 191.682 22.605 191.586 22.909 191.574 23.224 C 191.573 23.493 191.636 23.759 191.757 23.998 C 191.878 24.238 192.053 24.445 192.269 24.601 C 194.452 26.278 197.115 27.184 199.852 27.181 C 204.093 27.181 207.062 24.892 207.062 21.052 L 207.062 20.994 C 207.051 17.594 204.861 16.038 200.591 14.985 L 200.58 14.985 Z" fill="black"></path>
  <path fill-rule="evenodd" clip-rule="evenodd" d="M 248.08 29 L 248.08 23.966 C 253.429 23.966 257.542 18.684 255.501 13.062 C 254.759 10.993 253.089 9.325 251.017 8.584 C 245.39 6.545 240.102 10.684 240.102 15.997 L 235.062 15.997 C 235.062 7.503 243.287 0.862 252.192 3.642 C 256.088 4.847 259.18 7.966 260.417 11.858 C 263.2 20.784 256.583 29 248.08 29 Z" fill="black"></path>
  <path fill-rule="evenodd" clip-rule="evenodd" d="M 248.079 23.997 L 243.07 23.997 L 243.07 18.993 L 248.079 18.993 L 248.079 23.997 Z" fill="black"></path>
  <path fill-rule="evenodd" clip-rule="evenodd" d="M 243.069 27.859 L 239.204 27.859 L 239.204 23.998 L 243.069 23.998 L 243.069 27.859 Z" fill="black"></path>
  <path fill-rule="evenodd" clip-rule="evenodd" d="M 239.207 23.998 L 235.96 23.998 L 235.96 20.786 L 239.176 20.786 L 239.176 23.998 L 239.207 23.998 Z" fill="black"></path>
  <path fill-rule="evenodd" clip-rule="evenodd" d="M 276.374 14.804 C 275.238 14.028 273.817 13.628 272.16 13.628 L 268.562 13.628 L 268.562 25.018 L 272.16 25.018 C 273.817 25.018 275.238 24.595 276.374 23.771 C 276.989 23.324 277.487 22.712 277.818 21.935 C 278.149 21.159 278.339 20.264 278.339 19.252 C 278.339 18.24 278.173 17.346 277.818 16.593 C 277.487 15.816 277.013 15.204 276.374 14.804 Z M 270.671 15.535 L 271.807 15.535 C 273.062 15.535 274.103 15.77 274.885 16.265 C 275.761 16.782 276.21 17.794 276.21 19.23 C 276.21 20.713 275.761 21.748 274.885 22.313 C 274.127 22.807 273.109 23.066 271.831 23.066 L 270.695 23.066 L 270.695 15.535 L 270.671 15.535 Z" fill="black"></path>
  <path fill-rule="evenodd" clip-rule="evenodd" d="M 280.871 13.463 C 280.516 13.463 280.232 13.581 279.995 13.816 C 279.759 14.051 279.617 14.334 279.617 14.687 C 279.617 15.04 279.735 15.322 279.972 15.581 C 280.209 15.817 280.516 15.934 280.871 15.934 C 281.226 15.934 281.51 15.817 281.771 15.581 C 282.008 15.346 282.126 15.04 282.126 14.687 C 282.126 14.334 282.008 14.051 281.771 13.816 C 281.51 13.604 281.203 13.463 280.871 13.463 Z" fill="black"></path>
  <rect x="279.83" y="16.969" width="2.036" height="8.025" fill="black"></rect>
  <path fill-rule="evenodd" clip-rule="evenodd" d="M 289.226 17.652 C 288.61 17.11 287.924 16.804 287.19 16.804 C 286.077 16.804 285.13 17.181 284.42 17.958 C 283.686 18.711 283.331 19.676 283.331 20.829 C 283.331 21.958 283.686 22.923 284.396 23.7 C 285.106 24.453 286.053 24.83 287.166 24.83 C 287.947 24.83 288.61 24.618 289.178 24.194 L 289.178 24.382 C 289.178 25.041 288.989 25.559 288.657 25.912 C 288.302 26.265 287.805 26.454 287.213 26.454 C 286.266 26.454 285.698 26.077 284.964 25.136 L 283.591 26.454 L 283.639 26.501 C 283.947 26.924 284.396 27.324 284.988 27.701 C 285.58 28.077 286.361 28.289 287.237 28.289 C 288.444 28.289 289.415 27.913 290.125 27.183 C 290.835 26.454 291.214 25.465 291.214 24.265 L 291.214 16.969 L 289.226 16.969 L 289.226 17.652 Z M 288.681 22.383 C 288.326 22.783 287.876 22.971 287.285 22.971 C 286.693 22.971 286.243 22.783 285.912 22.383 C 285.557 21.983 285.391 21.465 285.391 20.806 C 285.391 20.147 285.557 19.629 285.912 19.229 C 286.267 18.829 286.717 18.641 287.285 18.641 C 287.876 18.641 288.326 18.829 288.681 19.229 C 289.036 19.629 289.202 20.17 289.202 20.806 C 289.226 21.465 289.036 21.983 288.681 22.383 Z" fill="black"></path>
  <rect x="292.945" y="16.969" width="2.036" height="8.025" fill="black"></rect>
  <path fill-rule="evenodd" clip-rule="evenodd" d="M 293.986 13.463 C 293.631 13.463 293.347 13.581 293.11 13.816 C 292.873 14.051 292.731 14.334 292.731 14.687 C 292.731 15.04 292.85 15.322 293.086 15.581 C 293.323 15.817 293.631 15.934 293.986 15.934 C 294.341 15.934 294.625 15.817 294.885 15.581 C 295.122 15.346 295.24 15.04 295.24 14.687 C 295.24 14.334 295.122 14.051 294.885 13.816 C 294.625 13.604 294.341 13.463 293.986 13.463 Z" fill="black"></path>
  <path fill-rule="evenodd" clip-rule="evenodd" d="M 299.429 14.803 L 297.441 14.803 L 297.441 16.969 L 296.281 16.969 L 296.281 18.804 L 297.441 18.804 L 297.441 22.123 C 297.441 23.158 297.654 23.911 298.056 24.335 C 298.483 24.759 299.216 24.994 300.234 24.994 C 300.566 24.994 300.897 24.994 301.229 24.97 L 301.323 24.97 L 301.323 23.135 L 300.637 23.182 C 300.163 23.182 299.832 23.088 299.666 22.923 C 299.5 22.758 299.429 22.405 299.429 21.864 L 299.429 18.828 L 301.323 18.828 L 301.323 16.992 L 299.429 16.992 L 299.429 14.803 Z" fill="black"></path>
  <path fill-rule="evenodd" clip-rule="evenodd" d="M 310.842 13.603 L 312.877 13.603 L 312.877 24.994 L 310.842 24.994 L 310.842 13.603 Z" fill="black"></path>
  <path fill-rule="evenodd" clip-rule="evenodd" d="M 333.353 22.123 C 332.998 22.523 332.619 22.876 332.335 23.065 C 332.051 23.253 331.696 23.323 331.294 23.323 C 330.702 23.323 330.205 23.112 329.826 22.664 C 329.447 22.217 329.234 21.652 329.234 20.97 C 329.234 20.287 329.423 19.723 329.802 19.275 C 330.181 18.828 330.678 18.616 331.27 18.616 C 331.933 18.616 332.619 19.017 333.211 19.723 L 334.56 18.452 C 333.685 17.322 332.572 16.804 331.246 16.804 C 330.134 16.804 329.163 17.204 328.382 18.005 C 327.601 18.805 327.198 19.793 327.198 20.993 C 327.198 22.194 327.601 23.206 328.382 23.982 C 329.163 24.783 330.134 25.183 331.246 25.183 C 332.714 25.183 333.898 24.547 334.702 23.394 L 333.353 22.123 Z" fill="black"></path>
  <path fill-rule="evenodd" clip-rule="evenodd" d="M 341.686 18.1 C 341.402 17.7 341 17.371 340.526 17.135 C 340.053 16.9 339.485 16.782 338.846 16.782 C 337.709 16.782 336.786 17.206 336.1 18.006 C 335.413 18.83 335.082 19.842 335.082 21.018 C 335.082 22.242 335.461 23.231 336.194 24.007 C 336.928 24.76 337.922 25.161 339.13 25.161 C 340.503 25.161 341.615 24.619 342.468 23.537 L 342.515 23.49 L 341.189 22.219 C 341.071 22.36 340.882 22.525 340.74 22.689 C 340.55 22.878 340.361 23.019 340.148 23.113 C 339.84 23.254 339.509 23.348 339.13 23.348 C 338.562 23.348 338.112 23.184 337.757 22.854 C 337.425 22.548 337.236 22.148 337.189 21.63 L 342.562 21.63 L 342.586 20.901 C 342.586 20.383 342.515 19.889 342.373 19.418 C 342.184 18.924 341.97 18.5 341.686 18.1 Z M 337.259 19.982 C 337.354 19.606 337.543 19.276 337.78 19.041 C 338.064 18.782 338.419 18.641 338.845 18.641 C 339.343 18.641 339.721 18.782 339.982 19.064 C 340.218 19.323 340.36 19.629 340.384 20.006 L 337.259 20.006 L 337.259 19.982 Z" fill="black"></path>
  <path fill-rule="evenodd" clip-rule="evenodd" d="M 349.476 17.581 C 348.86 17.063 348.008 16.804 346.943 16.804 C 346.257 16.804 345.641 16.946 345.073 17.228 C 344.552 17.487 344.031 17.934 343.7 18.522 L 343.724 18.546 L 345.026 19.793 C 345.57 18.946 346.162 18.64 346.943 18.64 C 347.369 18.64 347.724 18.758 347.985 18.969 C 348.245 19.181 348.387 19.464 348.387 19.84 L 348.387 20.24 C 347.89 20.099 347.393 20.005 346.896 20.005 C 345.878 20.005 345.073 20.24 344.457 20.711 C 343.842 21.182 343.534 21.864 343.534 22.711 C 343.534 23.465 343.795 24.077 344.315 24.524 C 344.836 24.971 345.499 25.183 346.28 25.183 C 347.061 25.183 347.772 24.877 348.434 24.335 L 348.434 24.994 L 350.423 24.994 L 350.423 19.84 C 350.399 18.852 350.091 18.099 349.476 17.581 Z M 345.876 21.935 C 346.113 21.77 346.421 21.7 346.847 21.7 C 347.344 21.7 347.865 21.794 348.385 21.982 L 348.385 22.759 C 347.936 23.159 347.344 23.37 346.634 23.37 C 346.279 23.37 346.018 23.3 345.829 23.135 C 345.639 22.994 345.545 22.806 345.545 22.547 C 345.545 22.288 345.639 22.076 345.876 21.935 Z" fill="black"></path>
  <path fill-rule="evenodd" clip-rule="evenodd" d="M 358.21 17.721 C 357.642 17.086 356.86 16.78 355.842 16.78 C 355.038 16.78 354.375 17.015 353.901 17.462 L 353.901 16.968 L 351.913 16.968 L 351.913 24.993 L 353.949 24.993 L 353.949 20.569 C 353.949 19.957 354.091 19.486 354.375 19.133 C 354.659 18.78 355.061 18.615 355.582 18.615 C 356.032 18.615 356.387 18.757 356.647 19.063 C 356.908 19.369 357.026 19.792 357.026 20.333 L 357.026 24.97 L 359.062 24.97 L 359.062 20.333 C 359.062 19.227 358.778 18.357 358.21 17.721 Z" fill="black"></path>
  <path fill-rule="evenodd" clip-rule="evenodd" d="M 308.287 17.581 C 307.671 17.063 306.819 16.804 305.754 16.804 C 305.067 16.804 304.452 16.946 303.883 17.228 C 303.363 17.487 302.842 17.934 302.51 18.522 L 302.534 18.546 L 303.836 19.793 C 304.381 18.946 304.972 18.64 305.754 18.64 C 306.18 18.64 306.535 18.758 306.795 18.969 C 307.056 19.181 307.198 19.464 307.198 19.84 L 307.198 20.24 C 306.7 20.099 306.203 20.005 305.706 20.005 C 304.688 20.005 303.883 20.24 303.268 20.711 C 302.652 21.182 302.345 21.864 302.345 22.711 C 302.345 23.465 302.605 24.077 303.126 24.524 C 303.647 24.971 304.31 25.183 305.091 25.183 C 305.872 25.183 306.582 24.877 307.245 24.335 L 307.245 24.994 L 309.233 24.994 L 309.233 19.84 C 309.21 18.852 308.902 18.099 308.287 17.581 Z M 304.687 21.935 C 304.924 21.77 305.231 21.7 305.657 21.7 C 306.154 21.7 306.675 21.794 307.196 21.982 L 307.196 22.759 C 306.746 23.159 306.154 23.37 305.444 23.37 C 305.089 23.37 304.829 23.3 304.639 23.135 C 304.45 22.994 304.355 22.806 304.355 22.547 C 304.355 22.288 304.45 22.076 304.687 21.935 Z" fill="black"></path>
  <path fill-rule="evenodd" clip-rule="evenodd" d="M 320.215 25.159 C 316.972 25.159 314.321 22.523 314.321 19.299 C 314.321 16.074 316.972 13.439 320.215 13.439 C 323.458 13.439 326.11 16.074 326.11 19.299 C 326.11 22.523 323.482 25.159 320.215 25.159 Z M 320.214 15.486 C 318.107 15.486 316.403 17.18 316.403 19.275 C 316.403 21.37 318.107 23.064 320.214 23.064 C 322.321 23.064 324.025 21.37 324.025 19.275 C 324.025 17.18 322.321 15.486 320.214 15.486 Z" fill="black"></path>
  <path d="M 268.714 9 L 268.218 9 L 269.474 3.1 L 270.974 3.1 C 271.377 3.1 271.699 3.167 271.942 3.3 C 272.185 3.433 272.361 3.612 272.47 3.836 C 272.579 4.06 272.634 4.307 272.634 4.576 C 272.634 4.923 272.575 5.236 272.458 5.516 C 272.343 5.793 272.179 6.033 271.966 6.236 C 271.755 6.439 271.503 6.593 271.21 6.7 C 270.917 6.807 270.594 6.86 270.242 6.86 L 269.17 6.86 L 268.714 9 Z M 269.21 6.676 L 269.042 6.424 L 270.234 6.424 C 270.621 6.424 270.957 6.347 271.242 6.192 C 271.527 6.035 271.749 5.817 271.906 5.54 C 272.063 5.263 272.142 4.94 272.142 4.572 C 272.142 4.361 272.099 4.18 272.014 4.028 C 271.929 3.873 271.791 3.753 271.602 3.668 C 271.413 3.58 271.162 3.536 270.85 3.536 L 269.654 3.536 L 269.934 3.26 L 269.21 6.676 Z M 274.536 9.076 C 274.173 9.076 273.861 9.004 273.6 8.86 C 273.338 8.713 273.137 8.511 272.996 8.252 C 272.854 7.993 272.784 7.692 272.784 7.348 C 272.784 6.975 272.848 6.627 272.976 6.304 C 273.106 5.981 273.286 5.7 273.516 5.46 C 273.748 5.217 274.018 5.029 274.328 4.896 C 274.64 4.76 274.977 4.692 275.34 4.692 C 275.705 4.692 276.017 4.767 276.276 4.916 C 276.537 5.065 276.737 5.269 276.876 5.528 C 277.014 5.784 277.084 6.075 277.084 6.4 C 277.084 6.795 277.017 7.156 276.884 7.484 C 276.753 7.809 276.572 8.091 276.34 8.328 C 276.108 8.565 275.837 8.749 275.528 8.88 C 275.221 9.011 274.89 9.076 274.536 9.076 Z M 274.572 8.632 C 274.948 8.632 275.286 8.541 275.588 8.36 C 275.892 8.176 276.133 7.921 276.312 7.596 C 276.49 7.268 276.58 6.887 276.58 6.452 C 276.58 6.185 276.53 5.955 276.432 5.76 C 276.333 5.563 276.189 5.409 276 5.3 C 275.813 5.191 275.582 5.136 275.308 5.136 C 275.014 5.136 274.744 5.192 274.496 5.304 C 274.25 5.413 274.037 5.567 273.856 5.764 C 273.677 5.961 273.537 6.191 273.436 6.452 C 273.337 6.713 273.288 6.996 273.288 7.3 C 273.288 7.711 273.398 8.036 273.62 8.276 C 273.844 8.513 274.161 8.632 274.572 8.632 Z M 281.021 9 L 280.689 4.752 L 281.117 4.752 L 281.441 8.76 L 281.349 8.76 L 283.029 4.752 L 283.561 4.752 L 281.701 9 L 281.021 9 Z M 278.221 9 L 278.157 4.752 L 278.657 4.752 L 278.641 8.76 L 278.545 8.76 L 280.565 4.752 L 281.029 4.752 L 278.905 9 L 278.221 9 Z M 284.032 7.084 L 284.128 6.64 L 287.568 6.64 L 287.468 6.78 C 287.482 6.724 287.494 6.659 287.504 6.584 C 287.515 6.507 287.52 6.423 287.52 6.332 C 287.52 6.111 287.475 5.911 287.384 5.732 C 287.296 5.551 287.162 5.407 286.98 5.3 C 286.799 5.193 286.568 5.14 286.288 5.14 C 285.987 5.14 285.711 5.196 285.46 5.308 C 285.212 5.42 284.996 5.576 284.812 5.776 C 284.631 5.973 284.49 6.204 284.388 6.468 C 284.29 6.729 284.24 7.012 284.24 7.316 C 284.24 7.575 284.287 7.803 284.38 8 C 284.476 8.197 284.622 8.351 284.816 8.46 C 285.011 8.569 285.256 8.624 285.552 8.624 C 285.8 8.624 286.02 8.595 286.212 8.536 C 286.407 8.475 286.572 8.395 286.708 8.296 C 286.847 8.197 286.958 8.093 287.04 7.984 C 287.126 7.872 287.184 7.767 287.216 7.668 L 287.716 7.668 C 287.676 7.825 287.596 7.987 287.476 8.152 C 287.359 8.315 287.204 8.467 287.012 8.608 C 286.82 8.749 286.595 8.864 286.336 8.952 C 286.08 9.037 285.795 9.08 285.48 9.08 C 285.118 9.08 284.807 9.007 284.548 8.86 C 284.292 8.711 284.096 8.505 283.96 8.244 C 283.827 7.98 283.76 7.676 283.76 7.332 C 283.76 6.961 283.826 6.617 283.956 6.3 C 284.09 5.98 284.274 5.7 284.508 5.46 C 284.746 5.217 285.02 5.029 285.332 4.896 C 285.644 4.76 285.979 4.692 286.336 4.692 C 286.694 4.692 286.995 4.767 287.24 4.916 C 287.488 5.063 287.676 5.263 287.804 5.516 C 287.932 5.769 287.996 6.055 287.996 6.372 C 287.996 6.484 287.986 6.607 287.964 6.74 C 287.946 6.873 287.923 6.988 287.896 7.084 L 284.032 7.084 Z M 288.677 9 L 289.577 4.752 L 290.073 4.752 L 289.809 6.004 L 289.621 5.948 C 289.666 5.815 289.735 5.676 289.829 5.532 C 289.922 5.385 290.039 5.248 290.181 5.12 C 290.322 4.992 290.486 4.889 290.673 4.812 C 290.862 4.732 291.074 4.692 291.309 4.692 C 291.477 4.692 291.611 4.707 291.713 4.736 C 291.817 4.765 291.879 4.788 291.901 4.804 L 291.665 5.284 C 291.641 5.265 291.59 5.241 291.513 5.212 C 291.438 5.183 291.323 5.168 291.169 5.168 C 290.945 5.168 290.747 5.212 290.577 5.3 C 290.406 5.385 290.261 5.497 290.141 5.636 C 290.021 5.775 289.923 5.923 289.849 6.08 C 289.777 6.237 289.726 6.387 289.697 6.528 L 289.169 9 L 288.677 9 Z M 292.243 7.084 L 292.339 6.64 L 295.779 6.64 L 295.679 6.78 C 295.693 6.724 295.705 6.659 295.715 6.584 C 295.726 6.507 295.731 6.423 295.731 6.332 C 295.731 6.111 295.686 5.911 295.595 5.732 C 295.507 5.551 295.373 5.407 295.191 5.3 C 295.01 5.193 294.779 5.14 294.499 5.14 C 294.198 5.14 293.922 5.196 293.671 5.308 C 293.423 5.42 293.207 5.576 293.023 5.776 C 292.842 5.973 292.701 6.204 292.599 6.468 C 292.501 6.729 292.451 7.012 292.451 7.316 C 292.451 7.575 292.498 7.803 292.591 8 C 292.687 8.197 292.833 8.351 293.027 8.46 C 293.222 8.569 293.467 8.624 293.763 8.624 C 294.011 8.624 294.231 8.595 294.423 8.536 C 294.618 8.475 294.783 8.395 294.919 8.296 C 295.058 8.197 295.169 8.093 295.251 7.984 C 295.337 7.872 295.395 7.767 295.427 7.668 L 295.927 7.668 C 295.887 7.825 295.807 7.987 295.687 8.152 C 295.57 8.315 295.415 8.467 295.223 8.608 C 295.031 8.749 294.806 8.864 294.547 8.952 C 294.291 9.037 294.006 9.08 293.691 9.08 C 293.329 9.08 293.018 9.007 292.759 8.86 C 292.503 8.711 292.307 8.505 292.171 8.244 C 292.038 7.98 291.971 7.676 291.971 7.332 C 291.971 6.961 292.037 6.617 292.167 6.3 C 292.301 5.98 292.485 5.7 292.719 5.46 C 292.957 5.217 293.231 5.029 293.543 4.896 C 293.855 4.76 294.19 4.692 294.547 4.692 C 294.905 4.692 295.206 4.767 295.451 4.916 C 295.699 5.063 295.887 5.263 296.015 5.516 C 296.143 5.769 296.207 6.055 296.207 6.372 C 296.207 6.484 296.197 6.607 296.175 6.74 C 296.157 6.873 296.134 6.988 296.107 7.084 L 292.243 7.084 Z M 298.588 9.076 C 298.134 9.076 297.776 8.931 297.512 8.64 C 297.248 8.349 297.116 7.941 297.116 7.416 C 297.116 7.048 297.17 6.7 297.28 6.372 C 297.392 6.044 297.549 5.755 297.752 5.504 C 297.957 5.251 298.202 5.053 298.488 4.912 C 298.773 4.768 299.09 4.696 299.44 4.696 C 299.728 4.696 299.984 4.756 300.208 4.876 C 300.434 4.996 300.613 5.161 300.744 5.372 C 300.874 5.583 300.94 5.825 300.94 6.1 C 300.94 6.172 300.934 6.248 300.924 6.328 C 300.913 6.405 300.901 6.467 300.888 6.512 L 300.548 6.52 C 300.561 6.475 300.57 6.424 300.576 6.368 C 300.584 6.309 300.588 6.26 300.588 6.22 C 300.588 6.017 300.537 5.835 300.436 5.672 C 300.337 5.509 300.201 5.381 300.028 5.288 C 299.857 5.195 299.662 5.148 299.444 5.148 C 299.153 5.148 298.894 5.208 298.668 5.328 C 298.444 5.445 298.254 5.608 298.1 5.816 C 297.945 6.021 297.826 6.259 297.744 6.528 C 297.664 6.795 297.624 7.076 297.624 7.372 C 297.624 7.769 297.718 8.075 297.908 8.288 C 298.1 8.501 298.37 8.608 298.72 8.608 C 298.984 8.608 299.232 8.547 299.464 8.424 C 299.698 8.301 299.898 8.139 300.064 7.936 C 300.232 7.731 300.341 7.504 300.392 7.256 L 300.784 7.264 C 300.712 7.6 300.569 7.905 300.356 8.18 C 300.142 8.455 299.881 8.673 299.572 8.836 C 299.265 8.996 298.937 9.076 298.588 9.076 Z M 300.02 9 L 301.348 2.748 L 301.844 2.748 L 300.516 9 L 300.02 9 Z M 305.817 9.076 C 305.532 9.076 305.276 9.015 305.049 8.892 C 304.822 8.769 304.644 8.601 304.513 8.388 C 304.385 8.172 304.321 7.927 304.321 7.652 C 304.321 7.577 304.325 7.505 304.333 7.436 C 304.344 7.367 304.356 7.307 304.369 7.256 L 304.705 7.248 C 304.697 7.28 304.689 7.323 304.681 7.376 C 304.676 7.429 304.673 7.481 304.673 7.532 C 304.673 7.735 304.722 7.917 304.821 8.08 C 304.922 8.243 305.058 8.372 305.229 8.468 C 305.402 8.561 305.598 8.608 305.817 8.608 C 306.105 8.608 306.361 8.549 306.585 8.432 C 306.812 8.312 307.002 8.148 307.157 7.94 C 307.314 7.732 307.433 7.495 307.513 7.228 C 307.593 6.961 307.633 6.68 307.633 6.384 C 307.633 5.979 307.541 5.671 307.357 5.46 C 307.173 5.249 306.905 5.144 306.553 5.144 C 306.305 5.144 306.062 5.204 305.825 5.324 C 305.588 5.444 305.382 5.604 305.209 5.804 C 305.036 6.004 304.922 6.225 304.869 6.468 L 304.485 6.456 C 304.557 6.12 304.705 5.819 304.929 5.552 C 305.153 5.285 305.418 5.076 305.725 4.924 C 306.034 4.769 306.352 4.692 306.677 4.692 C 307.133 4.692 307.49 4.837 307.749 5.128 C 308.01 5.419 308.141 5.831 308.141 6.364 C 308.141 6.732 308.085 7.08 307.973 7.408 C 307.864 7.733 307.706 8.021 307.501 8.272 C 307.296 8.523 307.05 8.72 306.765 8.864 C 306.48 9.005 306.164 9.076 305.817 9.076 Z M 303.837 9 L 305.169 2.748 L 305.665 2.748 L 304.337 9 L 303.837 9 Z M 308.282 10.776 C 308.183 10.776 308.093 10.769 308.01 10.756 C 307.927 10.745 307.878 10.736 307.862 10.728 L 307.954 10.284 C 307.983 10.303 308.037 10.317 308.114 10.328 C 308.189 10.341 308.262 10.348 308.334 10.348 C 308.518 10.348 308.681 10.303 308.822 10.212 C 308.966 10.121 309.093 10.007 309.202 9.868 C 309.311 9.729 309.406 9.587 309.486 9.44 L 309.722 9.012 L 309.146 4.752 L 309.65 4.752 L 310.134 8.552 L 310.046 8.552 L 312.098 4.752 L 312.63 4.752 L 310.038 9.42 C 309.91 9.652 309.769 9.871 309.614 10.076 C 309.462 10.284 309.279 10.452 309.066 10.58 C 308.853 10.711 308.591 10.776 308.282 10.776 Z" fill="black"></path>
  <line x1="221.562" y1="0" x2="221.562" y2="32" stroke="black" stroke-opacity="0.5"></line>
  <path d="M 14.795 19.379 L 8.707 23.545 C 7.977 24 7.409 24.303 6.678 24.303 C 5.218 24.303 4 23.09 4 21.729 C 4 20.591 4.974 19.757 5.867 19.379 L 13.009 16.5 L 5.867 13.545 C 4.896 13.167 4 12.334 4 11.197 C 4 9.834 5.299 8.697 6.758 8.697 C 7.489 8.697 7.975 8.924 8.705 9.455 L 14.793 13.621 L 13.984 6.879 C 13.74 5.287 14.876 4 16.5 4 C 18.124 4 19.258 5.212 19.016 6.803 L 18.202 13.621 L 24.29 9.455 C 25.023 8.924 25.591 8.697 26.322 8.697 C 27.795 8.71 28.987 9.822 29 11.197 C 29 12.409 28.107 13.167 27.133 13.546 L 19.99 16.5 L 27.133 19.379 C 28.107 19.757 29 20.591 29 21.803 C 29 23.166 27.701 24.303 26.242 24.303 C 25.593 24.303 25.025 24 24.294 23.545 L 18.202 19.379 L 19.014 26.121 C 19.257 27.712 18.121 29 16.497 29 C 14.874 29 13.74 27.788 13.981 26.197 L 14.795 19.379 Z"></path>
</svg>